<svg xmlns="http://www.w3.org/2000/svg" fill="none" viewBox="0 0 142 208"><path fill="#F8DEAD" d="M121.205 153.402C134.52 163.904 142 178.148 142 193h-.178c.118.33.178.664.178 1 0 7.732-31.788 14-71 14s-71-6.268-71-14c0-.336.06-.67.178-1H0c0-14.852 7.48-29.096 20.795-39.598C34.111 142.9 52.17 137 71 137s36.89 5.9 50.205 16.402Z"/><ellipse cx="68" cy="149.5" fill="#000" fill-opacity=".1" rx="30" ry="8.5"/><path fill="#6F5050" d="M76.5 147.5c-15.2 2.4-17 2-22.5 0C19.2 76.3 50.667 38.167 73 37c-38 16-13.667 84 3.5 110.5Z"/><path fill="#237E3D" d="M106.307 72.773c1.36-23.4-21.969-34.751-33.803-37.501 2.374-5.319 10.208-2.313 13.829-.145l-11.108-9.32c-3.332.859-5.245 4.954-5.785 6.893.694-8.294-4.85-10.814-7.709-11.037l-15.208.008a17.787 17.787 0 0 0-1.117 0h1.117c9.627.296 16.724 8.306 19.135 12.425-16.282-1.13-30.018 4.4-34.851 7.308l2.025 6.92 8.33-2.147-7.379 4.904 4.843 6.674C43.412 50.806 58.797 43.57 65.89 40.82c-.694 8.294-13.878 21.207-20.384 26.627l9.206 3.808 6.55-6.252-3.548 8.119 6.327 3.35c8.84-9.291 7.99-27.672 6.459-35.7 15.342 6.607 15.432 30.354 13.56 41.402l8.39-1.444 1.251-10.047 1.123 8.774 11.482-6.683Z"/><path fill="#3DA55A" d="M19 40c14-18.8 39.167-12.5 50-7 1.6-5.6-6.333-8.333-10.5-9H73c2 2.8.833 7.167 0 9 4.8-6.8 10.667-5.167 13-3.5l11.645 9.782c.29.228.575.467.855.718l-.855-.718C90.08 33.32 79.495 34.895 75 36.5c13.2 9.6 20.167 22.667 22 28l-6 4-5-7 2.5 8.5-8 2c.8-8.4-6.333-23.833-10-30.5-4.8 6.8-3 25.167-1.5 33.5l-9.5-3-1-9-2.5 8.5-7-1.5c-.8-12.8 11.667-26.333 18-31.5-16-4.8-31.333 13.333-37 23L24.5 55l5.5-8.5-6.5 6L19 40Z"/><path fill="#fff" d="M56.983 1.908c-12.856-2.788-8.104 5.55-4.12 10.068-.962 1.678-3.544 6.66-6.181 13.166-3.297 8.132 16.481 8.907 30.49 6.97 11.208-1.548 7.966-6.324 4.945-8.519-6.593.31-15.383-7.357-18.954-11.23 3.296-2.323 6.675-7.667-6.18-10.455Z"/><path fill="#D6D6D6" d="M78 26.32c-5.667-4.154-17-10.466-17-2.493 0 7.974 11.333 4.984 17 2.492Z"/><circle cx="58.625" cy="6.625" r="1.758" fill="#000"/><path fill="#FF8A00" d="M43.68 1.35c-.704-2.813 4.395-.586 7.033.88v3.516c-2.052-.293-6.33-1.582-7.033-4.396Z"/></svg>